<svg xmlns="http://www.w3.org/2000/svg" viewBox="0 0 560 170" width="560" height="170">
<rect x="4" y="4" width="552" height="162" rx="14" fill="#D6ECFB" stroke="#9CCDEE" stroke-width="2.4" stroke-linejoin="round" stroke-linecap="round"/>
<rect x="78.0" y="28" width="11" height="116" rx="3" fill="#9ED3F5" stroke="#3F3A40" stroke-width="2" stroke-linejoin="round" stroke-linecap="round"/><rect x="88.5" y="28" width="11" height="116" rx="3" fill="#9ED3F5" stroke="#3F3A40" stroke-width="2" stroke-linejoin="round" stroke-linecap="round"/><rect x="99.0" y="28" width="11" height="116" rx="3" fill="#9ED3F5" stroke="#3F3A40" stroke-width="2" stroke-linejoin="round" stroke-linecap="round"/><rect x="109.5" y="28" width="11" height="116" rx="3" fill="#9ED3F5" stroke="#3F3A40" stroke-width="2" stroke-linejoin="round" stroke-linecap="round"/><ellipse cx="99.5" cy="30" rx="23" ry="6" fill="#9ED3F5" stroke="#3F3A40" stroke-width="2" stroke-linejoin="round" stroke-linecap="round"/><circle cx="85.0" cy="30" r="3" fill="#fff" stroke="#3F3A40" stroke-width="1.4" stroke-linejoin="round" stroke-linecap="round"/><circle cx="95.0" cy="30" r="3" fill="#fff" stroke="#3F3A40" stroke-width="1.4" stroke-linejoin="round" stroke-linecap="round"/><circle cx="105.0" cy="30" r="3" fill="#fff" stroke="#3F3A40" stroke-width="1.4" stroke-linejoin="round" stroke-linecap="round"/><circle cx="115.0" cy="30" r="3" fill="#fff" stroke="#3F3A40" stroke-width="1.4" stroke-linejoin="round" stroke-linecap="round"/><path d="M76.0,87.36 Q100.0,95.36 124.0,87.36" fill="none" stroke="#B07A4F" stroke-width="4" stroke-linejoin="round" stroke-linecap="round"/><path d="M122.0,88.36 l8,-7 M122.0,88.36 l9,5" fill="none" stroke="#B07A4F" stroke-width="3" stroke-linejoin="round" stroke-linecap="round"/>
<rect x="136.0" y="28" width="11" height="116" rx="3" fill="#9ED3F5" stroke="#3F3A40" stroke-width="2" stroke-linejoin="round" stroke-linecap="round"/><rect x="146.5" y="28" width="11" height="116" rx="3" fill="#9ED3F5" stroke="#3F3A40" stroke-width="2" stroke-linejoin="round" stroke-linecap="round"/><rect x="157.0" y="28" width="11" height="116" rx="3" fill="#9ED3F5" stroke="#3F3A40" stroke-width="2" stroke-linejoin="round" stroke-linecap="round"/><rect x="167.5" y="28" width="11" height="116" rx="3" fill="#9ED3F5" stroke="#3F3A40" stroke-width="2" stroke-linejoin="round" stroke-linecap="round"/><ellipse cx="157.5" cy="30" rx="23" ry="6" fill="#9ED3F5" stroke="#3F3A40" stroke-width="2" stroke-linejoin="round" stroke-linecap="round"/><circle cx="143.0" cy="30" r="3" fill="#fff" stroke="#3F3A40" stroke-width="1.4" stroke-linejoin="round" stroke-linecap="round"/><circle cx="153.0" cy="30" r="3" fill="#fff" stroke="#3F3A40" stroke-width="1.4" stroke-linejoin="round" stroke-linecap="round"/><circle cx="163.0" cy="30" r="3" fill="#fff" stroke="#3F3A40" stroke-width="1.4" stroke-linejoin="round" stroke-linecap="round"/><circle cx="173.0" cy="30" r="3" fill="#fff" stroke="#3F3A40" stroke-width="1.4" stroke-linejoin="round" stroke-linecap="round"/><path d="M134.0,87.36 Q158.0,95.36 182.0,87.36" fill="none" stroke="#B07A4F" stroke-width="4" stroke-linejoin="round" stroke-linecap="round"/><path d="M180.0,88.36 l8,-7 M180.0,88.36 l9,5" fill="none" stroke="#B07A4F" stroke-width="3" stroke-linejoin="round" stroke-linecap="round"/>
<rect x="194.0" y="28" width="11" height="116" rx="3" fill="#9ED3F5" stroke="#3F3A40" stroke-width="2" stroke-linejoin="round" stroke-linecap="round"/><rect x="204.5" y="28" width="11" height="116" rx="3" fill="#9ED3F5" stroke="#3F3A40" stroke-width="2" stroke-linejoin="round" stroke-linecap="round"/><rect x="215.0" y="28" width="11" height="116" rx="3" fill="#9ED3F5" stroke="#3F3A40" stroke-width="2" stroke-linejoin="round" stroke-linecap="round"/><rect x="225.5" y="28" width="11" height="116" rx="3" fill="#9ED3F5" stroke="#3F3A40" stroke-width="2" stroke-linejoin="round" stroke-linecap="round"/><ellipse cx="215.5" cy="30" rx="23" ry="6" fill="#9ED3F5" stroke="#3F3A40" stroke-width="2" stroke-linejoin="round" stroke-linecap="round"/><circle cx="201.0" cy="30" r="3" fill="#fff" stroke="#3F3A40" stroke-width="1.4" stroke-linejoin="round" stroke-linecap="round"/><circle cx="211.0" cy="30" r="3" fill="#fff" stroke="#3F3A40" stroke-width="1.4" stroke-linejoin="round" stroke-linecap="round"/><circle cx="221.0" cy="30" r="3" fill="#fff" stroke="#3F3A40" stroke-width="1.4" stroke-linejoin="round" stroke-linecap="round"/><circle cx="231.0" cy="30" r="3" fill="#fff" stroke="#3F3A40" stroke-width="1.4" stroke-linejoin="round" stroke-linecap="round"/><path d="M192.0,87.36 Q216.0,95.36 240.0,87.36" fill="none" stroke="#B07A4F" stroke-width="4" stroke-linejoin="round" stroke-linecap="round"/><path d="M238.0,88.36 l8,-7 M238.0,88.36 l9,5" fill="none" stroke="#B07A4F" stroke-width="3" stroke-linejoin="round" stroke-linecap="round"/>
<rect x="252.0" y="28" width="11" height="116" rx="3" fill="#9ED3F5" stroke="#3F3A40" stroke-width="2" stroke-linejoin="round" stroke-linecap="round"/><rect x="262.5" y="28" width="11" height="116" rx="3" fill="#9ED3F5" stroke="#3F3A40" stroke-width="2" stroke-linejoin="round" stroke-linecap="round"/><rect x="273.0" y="28" width="11" height="116" rx="3" fill="#9ED3F5" stroke="#3F3A40" stroke-width="2" stroke-linejoin="round" stroke-linecap="round"/><rect x="283.5" y="28" width="11" height="116" rx="3" fill="#9ED3F5" stroke="#3F3A40" stroke-width="2" stroke-linejoin="round" stroke-linecap="round"/><ellipse cx="273.5" cy="30" rx="23" ry="6" fill="#9ED3F5" stroke="#3F3A40" stroke-width="2" stroke-linejoin="round" stroke-linecap="round"/><circle cx="259.0" cy="30" r="3" fill="#fff" stroke="#3F3A40" stroke-width="1.4" stroke-linejoin="round" stroke-linecap="round"/><circle cx="269.0" cy="30" r="3" fill="#fff" stroke="#3F3A40" stroke-width="1.4" stroke-linejoin="round" stroke-linecap="round"/><circle cx="279.0" cy="30" r="3" fill="#fff" stroke="#3F3A40" stroke-width="1.4" stroke-linejoin="round" stroke-linecap="round"/><circle cx="289.0" cy="30" r="3" fill="#fff" stroke="#3F3A40" stroke-width="1.4" stroke-linejoin="round" stroke-linecap="round"/><path d="M250.0,87.36 Q274.0,95.36 298.0,87.36" fill="none" stroke="#B07A4F" stroke-width="4" stroke-linejoin="round" stroke-linecap="round"/><path d="M296.0,88.36 l8,-7 M296.0,88.36 l9,5" fill="none" stroke="#B07A4F" stroke-width="3" stroke-linejoin="round" stroke-linecap="round"/>
<rect x="310.0" y="28" width="11" height="116" rx="3" fill="#9ED3F5" stroke="#3F3A40" stroke-width="2" stroke-linejoin="round" stroke-linecap="round"/><rect x="320.5" y="28" width="11" height="116" rx="3" fill="#9ED3F5" stroke="#3F3A40" stroke-width="2" stroke-linejoin="round" stroke-linecap="round"/><rect x="331.0" y="28" width="11" height="116" rx="3" fill="#9ED3F5" stroke="#3F3A40" stroke-width="2" stroke-linejoin="round" stroke-linecap="round"/><rect x="341.5" y="28" width="11" height="116" rx="3" fill="#9ED3F5" stroke="#3F3A40" stroke-width="2" stroke-linejoin="round" stroke-linecap="round"/><ellipse cx="331.5" cy="30" rx="23" ry="6" fill="#9ED3F5" stroke="#3F3A40" stroke-width="2" stroke-linejoin="round" stroke-linecap="round"/><circle cx="317.0" cy="30" r="3" fill="#fff" stroke="#3F3A40" stroke-width="1.4" stroke-linejoin="round" stroke-linecap="round"/><circle cx="327.0" cy="30" r="3" fill="#fff" stroke="#3F3A40" stroke-width="1.4" stroke-linejoin="round" stroke-linecap="round"/><circle cx="337.0" cy="30" r="3" fill="#fff" stroke="#3F3A40" stroke-width="1.4" stroke-linejoin="round" stroke-linecap="round"/><circle cx="347.0" cy="30" r="3" fill="#fff" stroke="#3F3A40" stroke-width="1.4" stroke-linejoin="round" stroke-linecap="round"/><path d="M308.0,87.36 Q332.0,95.36 356.0,87.36" fill="none" stroke="#B07A4F" stroke-width="4" stroke-linejoin="round" stroke-linecap="round"/><path d="M354.0,88.36 l8,-7 M354.0,88.36 l9,5" fill="none" stroke="#B07A4F" stroke-width="3" stroke-linejoin="round" stroke-linecap="round"/>
<rect x="386.0" y="30" width="11" height="114" rx="3" fill="#9ED3F5" stroke="#3F3A40" stroke-width="2" stroke-linejoin="round" stroke-linecap="round"/>
<rect x="403.0" y="30" width="11" height="114" rx="3" fill="#9ED3F5" stroke="#3F3A40" stroke-width="2" stroke-linejoin="round" stroke-linecap="round"/>
<rect x="420.0" y="30" width="11" height="114" rx="3" fill="#9ED3F5" stroke="#3F3A40" stroke-width="2" stroke-linejoin="round" stroke-linecap="round"/>
<rect x="437.0" y="30" width="11" height="114" rx="3" fill="#9ED3F5" stroke="#3F3A40" stroke-width="2" stroke-linejoin="round" stroke-linecap="round"/>
<rect x="454.0" y="30" width="11" height="114" rx="3" fill="#9ED3F5" stroke="#3F3A40" stroke-width="2" stroke-linejoin="round" stroke-linecap="round"/>
<rect x="471.0" y="30" width="11" height="114" rx="3" fill="#9ED3F5" stroke="#3F3A40" stroke-width="2" stroke-linejoin="round" stroke-linecap="round"/>
</svg>