<svg xmlns="http://www.w3.org/2000/svg" viewBox="0 0 240 113" width="240" height="113">
<path d="M22,52 L10,14 Q10,8 18,8 L30,8 L56,48 Z" fill="#FFD166" stroke="#3F3A40" stroke-width="3" stroke-linejoin="round"/><line x1="150" y1="72" x2="146" y2="94" stroke="#3F3A40" stroke-width="3"/><line x1="170" y1="72" x2="176" y2="94" stroke="#3F3A40" stroke-width="3"/><circle cx="146" cy="98" r="10" fill="#3F3A40"/><circle cx="146" cy="98" r="5.2" fill="#E8ECF0" stroke="#3F3A40" stroke-width="2"/><circle cx="146" cy="98" r="1.6" fill="#3F3A40"/><circle cx="178" cy="98" r="10" fill="#3F3A40"/><circle cx="178" cy="98" r="5.2" fill="#E8ECF0" stroke="#3F3A40" stroke-width="2"/><circle cx="178" cy="98" r="1.6" fill="#3F3A40"/><path d="M14,50 Q14,44 24,44 L190,40 Q220,42 222,58 Q220,74 190,76 L40,74 Q16,70 14,56 Z" fill="#6FB7EA" stroke="#3F3A40" stroke-width="3" stroke-linejoin="round"/><path d="M184,42 Q212,44 214,56 L184,56 Z" fill="#DFF3FF" stroke="#3F3A40" stroke-width="2.4" stroke-linejoin="round"/><path d="M96,60 L172,58 Q178,60 172,66 L100,70 Q90,66 96,60 Z" fill="#FFD166" stroke="#3F3A40" stroke-width="3" stroke-linejoin="round"/><circle cx="100" cy="52" r="5" fill="#DFF3FF" stroke="#3F3A40" stroke-width="2"/><circle cx="118" cy="52" r="5" fill="#DFF3FF" stroke="#3F3A40" stroke-width="2"/><circle cx="136" cy="52" r="5" fill="#DFF3FF" stroke="#3F3A40" stroke-width="2"/><circle cx="154" cy="52" r="5" fill="#DFF3FF" stroke="#3F3A40" stroke-width="2"/><path d="M36,56 L20,60 L40,64" fill="#FFD166" stroke="#3F3A40" stroke-width="2.4" stroke-linejoin="round"/><rect x="221" y="53" width="8" height="10" rx="2" fill="#F07167" stroke="#3F3A40" stroke-width="2"/><ellipse cx="231" cy="58" rx="4" ry="26" fill="#A7B1BC" stroke="#3F3A40" stroke-width="2.2"/>
</svg>