<svg xmlns="http://www.w3.org/2000/svg" viewBox="0 0 315 296" width="315" height="296">
  <rect width="315" height="296" fill="#fff"/>
  <g stroke="#2E2A2B" stroke-width="1.4" stroke-linejoin="miter">
    <rect fill="#A992B6" x="8" y="12" width="61" height="55"/>
    <rect fill="#F4A56C" x="69" y="12" width="60" height="55"/>
    <rect fill="#87C0E8" x="129" y="12" width="61" height="55"/>
    <rect fill="#F4A56C" x="190" y="12" width="60" height="55"/>
    <rect fill="#EE72B3" x="250" y="12" width="60" height="55"/>
    <rect fill="#B4CB3A" x="8" y="67" width="61" height="56"/>
    <rect fill="#F4A56C" x="250" y="67" width="60" height="56"/>
    <rect fill="#EE72B3" x="8" y="123" width="61" height="55"/>
    <rect fill="#A992B6" x="69" y="123" width="60" height="55"/>
    <rect fill="#F4A56C" x="129" y="123" width="61" height="55"/>
    <rect fill="#87C0E8" x="250" y="123" width="60" height="55"/>
    <rect fill="#EE72B3" x="250" y="178" width="60" height="55"/>
    <rect fill="#EE72B3" x="8" y="233" width="61" height="57"/>
    <rect fill="#F4A56C" x="69" y="233" width="60" height="57"/>
    <rect fill="#EE72B3" x="129" y="233" width="61" height="57"/>
    <rect fill="#87C0E8" x="190" y="233" width="60" height="57"/>
    <rect fill="#B4CB3A" x="250" y="233" width="60" height="57"/>
  </g>
</svg>
